<svg width="18" height="18" viewBox="0 0 18 18" fill="none" xmlns="http://www.w3.org/2000/svg">
<path fill-rule="evenodd" clip-rule="evenodd" d="M9.19035 0.91361C10.5287 0.00977528 12.3066 -0.239922 13.8425 0.285849C17.1834 1.43674 18.2205 5.32728 17.2929 8.423C15.8615 13.2851 9.74841 16.9118 9.48913 17.0639C9.39694 17.1184 9.29488 17.1457 9.19282 17.1457C9.09075 17.1457 8.98951 17.1193 8.89732 17.0657C8.6397 16.9153 2.57101 13.3422 1.0919 8.42388C1.09108 8.42388 1.09108 8.423 1.09108 8.423C0.162626 5.3264 1.19644 1.43499 4.53409 0.285849C6.10127 -0.255748 7.80919 -0.0174804 9.19035 0.91361ZM4.91271 1.54137C2.21214 2.47158 1.5339 5.57434 2.26728 8.0212C3.42126 11.8563 7.98039 14.9573 9.19199 15.7249C10.4077 14.9494 14.9998 11.8141 16.1167 8.02471C16.8501 5.57522 16.1694 2.47246 13.4647 1.54137C12.1543 1.09209 10.6258 1.36553 9.57062 2.23771C9.35003 2.41883 9.04384 2.42235 8.8216 2.24299C7.70383 1.34531 6.24366 1.08242 4.91271 1.54137ZM12.6745 3.28741C13.7964 3.67514 14.5825 4.73636 14.6788 5.991C14.7059 6.35411 14.4532 6.67239 14.1133 6.7014C14.096 6.70316 14.0795 6.70404 14.0623 6.70404C13.7437 6.70404 13.4737 6.44291 13.4474 6.09826C13.3931 5.37555 12.9404 4.76537 12.2959 4.54293C11.9708 4.43039 11.793 4.05848 11.8975 3.71295C12.0037 3.36654 12.3486 3.17838 12.6745 3.28741Z" fill="#333333"/>
</svg>
