<svg width="6" height="7" viewBox="0 0 6 7" fill="none" xmlns="http://www.w3.org/2000/svg">
<path fill-rule="evenodd" clip-rule="evenodd" d="M2.99958 0.3253C3.47612 0.00348059 4.10915 -0.0854269 4.65602 0.10178C5.8456 0.511568 6.21488 1.89683 5.88458 2.9991C5.37493 4.73029 3.19828 6.02164 3.10597 6.0758C3.07314 6.0952 3.0368 6.10491 3.00046 6.10491C2.96412 6.10491 2.92807 6.09552 2.89525 6.07642C2.80352 6.02289 0.642695 4.75064 0.116044 2.99941C0.115751 2.99941 0.115751 2.9991 0.115751 2.9991C-0.214835 1.89652 0.153264 0.510942 1.34167 0.10178C1.89968 -0.0910618 2.50781 -0.0062241 2.99958 0.3253ZM1.47648 0.548821C0.514915 0.880033 0.273424 1.9848 0.534551 2.85603C0.945438 4.22157 2.56876 5.32572 3.00017 5.59901C3.43303 5.3229 5.06808 4.20655 5.46578 2.85728C5.72691 1.98511 5.48454 0.880346 4.5215 0.548821C4.05493 0.38885 3.5107 0.48621 3.13498 0.79676C3.05644 0.861249 2.94741 0.862502 2.86828 0.798639C2.47029 0.47901 1.95038 0.385407 1.47648 0.548821ZM4.24016 1.17052C4.63961 1.30857 4.9195 1.68643 4.95379 2.13316C4.96346 2.26245 4.87348 2.37578 4.75245 2.38611C4.74629 2.38673 4.74043 2.38704 4.73428 2.38704C4.62086 2.38704 4.52473 2.29407 4.51535 2.17135C4.49601 1.91402 4.33482 1.69676 4.10534 1.61756C3.98958 1.57749 3.92628 1.44506 3.9635 1.32203C4.0013 1.19869 4.1241 1.1317 4.24016 1.17052Z" fill="black"/>
</svg>
