<svg width="17" height="18" viewBox="0 0 17 18" fill="none" xmlns="http://www.w3.org/2000/svg">
<path fill-rule="evenodd" clip-rule="evenodd" d="M9.45803 11.8513C10.3927 11.8513 11.1535 12.6582 11.1535 13.65V16.2008C11.1535 16.4139 11.3135 16.5847 11.5184 16.5897H12.9981C14.1642 16.5897 15.1121 15.5896 15.1121 14.3607V7.12611C15.1066 6.70318 14.918 6.30514 14.5943 6.0406L9.47588 1.68031C8.78883 1.09899 7.82772 1.09899 7.13833 1.68196L2.05488 6.03894C1.71873 6.31177 1.53008 6.70982 1.5262 7.14021V14.3607C1.5262 15.5896 2.4741 16.5897 3.64016 16.5897H5.13383C5.34422 16.5897 5.51501 16.4114 5.51501 16.1925C5.51501 16.1444 5.52045 16.0963 5.52976 16.0507V13.65C5.52976 12.664 6.28592 11.8579 7.21364 11.8513H9.45803ZM12.9981 17.8336H11.5044C10.6489 17.8121 9.98904 17.0947 9.98904 16.2008V13.65C9.98904 13.344 9.7507 13.0952 9.45803 13.0952H7.21752C6.93105 13.0968 6.69427 13.3465 6.69427 13.65V16.1925C6.69427 16.2547 6.68651 16.3144 6.6702 16.3708C6.58636 17.1918 5.92958 17.8336 5.13383 17.8336H3.64016C1.83207 17.8336 0.361694 16.2754 0.361694 14.3607V7.1344C0.369458 6.31011 0.72502 5.55548 1.3391 5.05874L6.41246 0.709232C7.52961 -0.236134 9.08616 -0.236134 10.201 0.707573L15.3108 5.06123C15.9109 5.54967 16.2665 6.30265 16.2766 7.11699V14.3607C16.2766 16.2754 14.8062 17.8336 12.9981 17.8336Z" fill="#00BFFB"/>
</svg>
