<svg width="15" height="18" viewBox="0 0 15 18" fill="none" xmlns="http://www.w3.org/2000/svg">
<path fill-rule="evenodd" clip-rule="evenodd" d="M5.93964 15.4938C6.35971 15.9618 6.89898 16.2188 7.45853 16.2188H7.45934C8.02132 16.2188 8.56303 15.9618 8.98391 15.493C9.20935 15.2441 9.59374 15.2238 9.8427 15.4484C10.0925 15.6731 10.1127 16.0583 9.88811 16.3072C9.23287 17.0346 8.37084 17.4352 7.45934 17.4352H7.45772C6.54865 17.4344 5.68825 17.0338 5.03544 16.3064C4.81081 16.0574 4.83108 15.6722 5.08085 15.4484C5.33062 15.223 5.71501 15.2433 5.93964 15.4938ZM7.49892 0C11.1035 0 13.525 2.80748 13.525 5.42925C13.525 6.77785 13.868 7.34956 14.2322 7.95614C14.5922 8.55462 15.0001 9.23419 15.0001 10.5187C14.7171 13.8006 11.2909 14.0682 7.49892 14.0682C3.70696 14.0682 0.279918 13.8006 0.000132804 10.5706C-0.00228919 9.23419 0.405614 8.55462 0.765672 7.95614L0.892783 7.74218C1.20575 7.20429 1.47281 6.61919 1.47281 5.42925C1.47281 2.80748 3.89428 0 7.49892 0ZM7.49892 1.21641C4.66468 1.21641 2.68922 3.43677 2.68922 5.42925C2.68922 7.1152 2.22131 7.89451 1.80773 8.58219C1.47606 9.13444 1.21412 9.57073 1.21412 10.5187C1.34955 12.0482 2.35917 12.8518 7.49892 12.8518C12.6103 12.8518 13.6515 12.0125 13.7861 10.466C13.7837 9.57073 13.5218 9.13444 13.1901 8.58219C12.7765 7.89451 12.3086 7.1152 12.3086 5.42925C12.3086 3.43677 10.3332 1.21641 7.49892 1.21641Z" fill="black"/>
</svg>
