<svg width="14" height="17" viewBox="0 0 14 17" fill="none" xmlns="http://www.w3.org/2000/svg">
<path fill-rule="evenodd" clip-rule="evenodd" d="M13.0968 13.5119C13.0968 16.2621 9.56597 16.58 6.91085 16.58L6.72085 16.5798C5.02923 16.5754 0.723389 16.4614 0.723389 13.4952C0.723389 10.8011 4.11228 10.4411 6.74719 10.4275L7.10085 10.4273C8.79236 10.4316 13.0968 10.5457 13.0968 13.5119ZM6.91085 11.6787C3.58239 11.6787 1.89511 12.2895 1.89511 13.4952C1.89511 14.7118 3.58239 15.3284 6.91085 15.3284C10.2385 15.3284 11.925 14.7176 11.925 13.5119C11.925 12.2953 10.2385 11.6787 6.91085 11.6787ZM6.91085 0C9.19805 0 11.058 1.98756 11.058 4.4307C11.058 6.87384 9.19805 8.86057 6.91085 8.86057H6.88586C4.60335 8.85306 2.75437 6.86467 2.76216 4.4282C2.76216 1.98756 4.62287 0 6.91085 0ZM6.91085 1.19153C5.23842 1.19153 3.87764 2.64424 3.87764 4.4307C3.87219 6.21132 5.2228 7.66319 6.8882 7.66987L6.91085 8.26563V7.66987C8.58251 7.66987 9.94248 6.21633 9.94248 4.4307C9.94248 2.64424 8.58251 1.19153 6.91085 1.19153Z" fill="#333333"/>
</svg>
