<svg width="14" height="14" viewBox="0 0 14 14" fill="none" xmlns="http://www.w3.org/2000/svg">
<path fill-rule="evenodd" clip-rule="evenodd" d="M6.57987 0C10.2079 0 13.1591 2.95111 13.1591 6.57919C13.1591 8.2909 12.5022 9.85208 11.4272 11.0238L13.5424 13.1345C13.7404 13.3325 13.741 13.6527 13.5431 13.8507C13.4444 13.9507 13.314 14 13.1843 14C13.0553 14 12.9256 13.9507 12.8262 13.852L10.6855 11.7173C9.5594 12.6191 8.13155 13.1591 6.57987 13.1591C2.95179 13.1591 0 10.2073 0 6.57919C0 2.95111 2.95179 0 6.57987 0ZM6.57987 1.01343C3.51052 1.01343 1.01343 3.50985 1.01343 6.57919C1.01343 9.64853 3.51052 12.1456 6.57987 12.1456C9.64853 12.1456 12.1456 9.64853 12.1456 6.57919C12.1456 3.50985 9.64853 1.01343 6.57987 1.01343Z" fill="black" fill-opacity="0.65"/>
</svg>
